HIERARCHY
ROOT Hips
{
	OFFSET	0.000000	0.000000	0.000000
	CHANNELS 6 Xposition Yposition Zposition Zrotation Xrotation Yrotation
	JOINT LeftHip
	{
		OFFSET	12.830505	0	0
		CHANNELS 3 Zrotation Xrotation Yrotation
		JOINT LeftKnee
		{
			OFFSET	0.620834	-39.957502	-1.919341
			CHANNELS 3 Zrotation Xrotation Yrotation
			JOINT LeftAnkle
			{
				OFFSET	-0.413890	-44.704761	-3.870325
				CHANNELS 3 Zrotation Xrotation Yrotation
				JOINT LeftAnkleEnd
				{
					OFFSET	0.164738	-8.918194	-6.555130
					CHANNELS 3 Zrotation Xrotation Yrotation
					End Site
					{
						OFFSET	-0.604053	0.000000	21.044330
					}
				}
			}
		}
	}
	JOINT RightHip
	{
		OFFSET	-12.830505	-7.049846	-1.643436
		CHANNELS 3 Zrotation Xrotation Yrotation
		JOINT RightKnee
		{
			OFFSET	-0.620834	-39.957502	-1.919341
			CHANNELS 3 Zrotation Xrotation Yrotation
			JOINT RightAnkle
			{
				OFFSET	0.413890	-44.704761	-3.870325
				CHANNELS 3 Zrotation Xrotation Yrotation
				JOINT RightAnkleEnd
				{
					OFFSET	-0.164738	-8.918194	-6.555130
					CHANNELS 3 Zrotation Xrotation Yrotation
					End Site
					{
						OFFSET	0.604053	0.000000	21.044330
					}
				}
			}
		}
	}
	JOINT Waist
	{
		OFFSET	0.000000	12.498171	1.820647
		CHANNELS 3 Zrotation Xrotation Yrotation
		JOINT Chest
		{
			OFFSET	0.000000	7.620000	0.000000
			CHANNELS 3 Zrotation Xrotation Yrotation
			JOINT LeftCollar
				`{
				OFFSET	9.167800	29.136339	-5.551221
				CHANNELS 3 Zrotation Xrotation Yrotation
				JOINT LeftShoulder
				{
					OFFSET	12.133453	-3.880866	1.461963
					CHANNELS 3 Zrotation Xrotation Yrotation
					JOINT LeftElbow
					{
						OFFSET	2.507115	-31.664910	-1.069404
						CHANNELS 3 Zrotation Xrotation Yrotation
						JOINT LeftWrist
						{
							OFFSET	4.116172	-24.512624	5.009439
							CHANNELS 3 Zrotation Xrotation Yrotation
							End Site
							{
								OFFSET	-0.213136	-10.931856	2.182134
							}
						}
					}
				}
			}
			JOINT RightCollar
			{
				OFFSET	-9.167800	29.136339	-5.551221
				CHANNELS 3 Zrotation Xrotation Yrotation
				JOINT RightShoulder
				{
					OFFSET	-12.133453	-3.880866	1.461963
					CHANNELS 3 Zrotation Xrotation Yrotation
					JOINT RightElbow
					{
						OFFSET	-2.507115	-31.664910	-1.069404
						CHANNELS 3 Zrotation Xrotation Yrotation
						JOINT RightWrist
						{
							OFFSET	-4.116172	-24.512624	5.009439
							CHANNELS 3 Zrotation Xrotation Yrotation
							End Site
							{
								OFFSET	0.213136	-10.931856	2.182134
							}
						}
					}
				}
			}
			JOINT Neck
			{
				OFFSET	0.000000	32.926275	-3.635654
				CHANNELS 3 Zrotation Xrotation Yrotation
				JOINT Head
				{
					OFFSET	0.000000	12.481178	4.646143
					CHANNELS 3 Zrotation Xrotation Yrotation
					End Site
					{
						OFFSET	0.000000	17.715205	-2.222063
					}
				}
			}
		}
	}
}
MOTION
Frames:     17
Frame Time: 0.016667
10.695750	100.683349	2.795769	2.784107	-3.076385	45.460388	-5.240847	-3.603870	-4.833112	3.600605	10.602187	-15.052279	0.665097	-0.162090	-20.270739	0.	0.	0.	-12.899179	-4.229785	4.239918	6.647311	19.292452	-45.675968	12.358433	-3.088247	-3.127609	0.	0.	0.	0.237713	4.141443	-45.394207	-6.391024	-8.933858	60.931770	3.575838	2.777415	0.428630	28.702343	3.854780	1.376524	-48.228813	-19.728586	-36.529572	-1.864897	-5.522662	-11.439035	-9.984486	-3.583822	3.985906	-83.094124	-12.219197	-61.751572	-27.023174	-142.833817	-35.833393	-50.875244	-34.342148	-23.156296	-4.188397	-4.726142	18.953234	1.763168	0.109605	6.826673	
10.625013	100.691265	2.855121	2.837866	-3.062869	45.244690	-5.221383	-3.466016	-4.740232	3.589282	10.418058	-14.928403	0.593399	-0.098774	-20.273415	0.	0.	0.	-12.932405	-4.254280	4.281746	6.647872	19.322718	-45.573521	12.327589	-3.111099	-3.055812	0.	0.	0.	0.174497	4.170921	-45.175163	-6.127091	-8.844349	60.553288	3.552188	2.837002	0.489949	28.486361	4.148747	1.599857	-48.109772	-19.728607	-37.159943	-1.968185	-5.509528	-11.541307	-9.902704	-3.375921	4.115480	-82.385529	-13.009433	-61.727253	-27.005030	-142.860870	-36.189579	-50.542282	-34.284348	-23.410000	-4.128967	-4.550457	18.928509	1.685893	0.190358	6.794076	
10.582751	100.689550	2.883853	2.838025	-3.086493	45.089237	-5.198354	-3.465526	-4.644029	3.635405	10.467252	-14.928411	0.553623	-0.149950	-20.221426	0.	0.	0.	-12.909588	-4.323442	4.290781	6.668334	19.375885	-45.449554	12.281447	-3.118066	-3.046832	0.	0.	0.	0.179782	4.188170	-45.019337	-5.980927	-8.731456	60.299110	3.519222	2.807773	0.485807	28.522604	3.653157	1.149638	-47.840912	-19.697660	-36.727036	-2.051082	-5.483555	-11.638208	-9.858379	-3.217929	4.194767	-82.034927	-13.522080	-61.755844	-26.989357	-142.957275	-36.644176	-50.481461	-34.169750	-23.678837	-4.156499	-4.492230	18.893486	1.655633	0.251197	6.781384	
10.535970	100.677458	2.900688	2.867107	-3.166802	44.919926	-5.191536	-3.489296	-4.551746	3.725920	10.681615	-14.975098	0.517157	-0.283982	-20.108343	0.	0.	0.	-12.860495	-4.355322	4.346112	6.672533	19.450241	-45.338215	12.253568	-3.128953	-3.036101	0.	0.	0.	0.203428	4.266059	-44.848232	-5.837857	-8.600687	60.015003	3.499410	2.789500	0.488694	28.462543	3.526094	0.970769	-47.694324	-19.698692	-36.863861	-2.094209	-5.488159	-11.769861	-9.835355	-3.096582	4.245816	-81.676735	-14.107268	-61.667183	-27.006020	-143.063034	-37.258999	-50.376930	-34.078381	-24.058973	-4.139246	-4.456415	18.856609	1.596320	0.328880	6.786747	
10.535970	100.677458	2.900688	2.867107	-3.166802	44.919926	-5.191536	-3.489296	-4.551746	3.725920	10.681615	-14.975098	0.517157	-0.283982	-20.108343	0.	0.	0.	-12.865585	-4.416068	4.190818	6.642465	19.525261	-45.187351	12.243563	-3.134965	-3.033952	0.	0.	0.	0.203428	4.266059	-44.848232	-5.707402	-8.443497	59.708061	3.282769	2.841392	0.812861	28.462543	3.526094	0.970769	-47.694324	-19.698692	-36.863861	-2.094209	-5.488159	-11.769861	-10.018313	-3.120669	4.573321	-81.676735	-14.107268	-61.667183	-27.006020	-143.063034	-37.258999	-50.376930	-34.078381	-24.058973	-4.170218	-4.455162	18.848515	1.460562	0.391861	7.133278	
10.409183	100.612791	2.880432	2.859405	-3.224694	44.440685	-5.279064	-3.857405	-4.438446	3.979042	11.433348	-14.815044	0.437065	-0.673599	-19.962427	0.	0.	0.	-12.794223	-4.530489	4.468482	6.615837	19.545658	-45.007198	12.196961	-3.115998	-3.021738	0.	0.	0.	0.213739	4.303559	-44.368214	-5.574211	-8.280671	59.355682	3.466707	2.618666	0.505838	28.288515	3.299909	0.526989	-47.425922	-19.589334	-37.098030	-2.028888	-5.483805	-11.953504	-9.823654	-2.937528	4.247578	-80.820892	-15.542497	-61.345200	-27.081650	-143.376816	-38.551895	-49.524460	-33.967865	-24.785322	-4.152766	-4.446335	18.876631	1.588343	0.385268	6.912727	
10.342428	100.586427	2.887845	2.847271	-3.255153	44.088589	-5.280089	-3.987868	-4.395601	4.045102	11.732906	-14.584836	0.402787	-0.851047	-19.904818	0.	0.	0.	-12.736700	-4.595110	4.815255	6.615837	19.545658	-45.007198	12.210624	-3.106058	-3.023094	0.	0.	0.	0.217188	4.318237	-44.015858	-5.441362	-8.113623	58.934315	3.435353	2.507818	0.536018	28.165888	3.250512	0.338298	-47.281536	-19.474531	-37.157093	-1.998100	-5.530051	-11.903916	-9.793972	-2.839359	4.254518	-80.285286	-16.413685	-61.149632	-27.153675	-143.615845	-39.157425	-49.004799	-33.922245	-25.226303	-4.043276	-4.406518	18.958557	1.547793	0.403009	6.999355	
10.263602	100.571679	2.907587	2.831423	-3.294120	43.636761	-5.224657	-4.030263	-4.271380	4.052648	11.887480	-14.399933	0.372531	-0.984009	-19.771084	0.	0.	0.	-12.641550	-4.716200	4.899571	6.447108	19.524942	-44.630764	12.172853	-3.007128	-3.037147	0.	0.	0.	0.221479	4.337094	-43.563717	-5.266191	-7.964210	58.444790	3.391265	2.423559	0.562700	28.008707	3.290008	0.177985	-47.115402	-19.358072	-37.136776	-1.947832	-5.602435	-11.754526	-9.719719	-2.646374	4.311324	-79.728149	-17.321081	-60.970886	-27.221239	-143.824509	-39.787807	-48.565498	-33.921875	-25.732330	-3.888157	-4.281829	19.020727	1.498356	0.427103	7.122661	
10.263602	100.571679	2.907587	2.831423	-3.294120	43.636761	-5.224657	-4.030263	-4.271380	4.052648	11.887480	-14.399933	0.372531	-0.984009	-19.771084	0.	0.	0.	-12.641550	-4.716200	4.899571	6.447108	19.524942	-44.630764	12.172853	-3.007128	-3.037147	0.	0.	0.	0.221479	4.337094	-43.563717	-5.266191	-7.964210	58.444790	3.391265	2.423559	0.562700	28.008707	3.290008	0.177985	-47.115402	-19.358072	-37.136776	-1.947832	-5.602435	-11.754526	-9.719719	-2.646374	4.311324	-79.728149	-17.321081	-60.970886	-27.221239	-143.824509	-39.787807	-48.565498	-33.921875	-25.732330	-3.888157	-4.281829	19.020727	1.498356	0.427103	7.122661	
10.122933	100.566525	2.929552	2.801092	-3.366338	42.795372	-5.055753	-3.955331	-4.052843	3.933292	11.879832	-14.056068	0.361056	-1.111683	-19.476967	0.	0.	0.	-12.451816	-4.832519	5.196033	6.188954	19.405781	-44.160976	12.113031	-2.857414	-2.967322	0.	0.	0.	0.229070	4.372293	-42.721790	-4.995980	-7.778743	57.451794	3.319230	2.309815	0.759661	27.705729	3.459297	-0.022509	-46.800327	-19.205803	-36.968071	-1.876148	-5.740138	-11.437188	-9.500596	-2.258600	4.597660	-78.788948	-18.679033	-60.713463	-27.232054	-144.186813	-40.746334	-47.897709	-33.876865	-26.406605	-3.527020	-4.012215	19.231674	1.452114	0.545955	7.213618	
10.037399	100.564161	2.944484	2.776868	-3.421981	42.143478	-4.892366	-3.816238	-3.830816	3.777170	11.741613	-13.821164	0.382821	-1.198182	-19.255999	0.	0.	0.	-12.415421	-4.816575	4.874980	5.886433	19.146839	-43.463490	12.009833	-2.605702	-2.683360	0.	0.	0.	0.234596	4.399642	-42.069523	-4.792070	-7.533010	56.283058	3.133929	2.193475	1.318482	27.452364	3.609092	-0.076300	-46.558853	-19.079891	-36.830971	-1.857223	-5.860395	-11.192639	-9.424713	-2.075644	5.249716	-78.161407	-19.491508	-60.564171	-27.170908	-144.498917	-41.377773	-48.040642	-33.128395	-27.511383	-3.245019	-3.827787	19.459949	1.354813	0.679750	7.544363	
9.874406	100.573724	2.973770	2.732754	-3.519103	40.997517	-4.605123	-3.526045	-3.402055	3.499496	11.410639	-13.669573	0.451042	-1.284084	-18.635624	0.	0.	0.	-12.381359	-4.806164	4.763747	5.506783	18.710344	-42.478821	11.891544	-2.223520	-2.407944	0.	0.	0.	0.243552	4.447858	-40.923016	-4.658456	-7.354599	55.434086	3.142896	1.891552	1.142293	27.103598	3.876349	-0.093775	-46.284805	-18.876995	-36.661522	-1.780188	-5.981750	-10.787440	-9.088155	-1.790314	5.176870	-77.117218	-20.745497	-60.151154	-27.213932	-144.786118	-42.154572	-47.122898	-33.536938	-27.319021	-3.005388	-3.689718	19.619049	1.611002	0.957747	7.081721	
9.874406	100.573724	2.973770	2.732754	-3.519103	40.997517	-4.605123	-3.526045	-3.402055	3.499496	11.410639	-13.669573	0.451042	-1.284084	-18.635624	0.	0.	0.	-12.381359	-4.806164	4.763747	5.506783	18.710344	-42.478821	11.891544	-2.223520	-2.407944	0.	0.	0.	0.243552	4.447858	-40.923016	-4.658456	-7.354599	55.434086	3.142896	1.891552	1.142293	27.103598	3.876349	-0.093775	-46.284805	-18.876995	-36.661522	-1.780188	-5.981750	-10.787440	-9.088155	-1.790314	5.176870	-77.117218	-20.745497	-60.151154	-27.213932	-144.786118	-42.154572	-47.122898	-33.536938	-27.319021	-3.005388	-3.689718	19.619049	1.611002	0.957747	7.081721	
9.655002	100.552466	2.962217	2.659015	-3.551591	39.124020	-4.391970	-3.303667	-2.623753	3.274902	11.145432	-13.250943	0.518428	-1.469247	-17.857094	0.	0.	0.	-12.319544	-4.990089	5.255357	5.121625	18.171169	-41.271667	11.724448	-1.828971	-2.288315	0.	0.	0.	0.175661	4.432190	-39.048363	-4.327859	-6.943183	53.628242	2.941244	1.469654	1.414573	26.663893	4.404094	-0.075198	-46.016273	-18.656149	-36.568607	-1.625139	-6.206456	-10.322331	-8.771109	-1.584242	5.549696	-75.745316	-22.185511	-59.566975	-27.316294	-144.932831	-42.439598	-46.234592	-33.303059	-27.359148	-2.631894	-3.398103	19.870989	1.736979	1.276537	7.050475	
9.531320	100.510937	2.986804	2.624577	-3.501785	38.063202	-4.334527	-3.351603	-2.051871	3.204767	11.253822	-13.179119	0.614997	-1.702154	-17.403517	0.	0.	0.	-12.327669	-5.192178	5.481852	4.908522	17.718754	-40.515369	11.477941	-1.466802	-2.272127	0.	0.	0.	0.089923	4.374272	-37.986393	-4.135101	-6.720893	52.680241	2.864204	1.362745	1.504093	26.379057	4.593120	-0.035523	-45.830551	-18.583233	-36.511082	-1.568140	-6.327795	-10.176797	-8.656423	-1.459998	5.716600	-75.137848	-22.737402	-59.381809	-27.378977	-144.949280	-42.400162	-45.886593	-33.175797	-27.175556	-2.417227	-3.281899	20.046452	1.781692	1.484650	7.020352	
9.397465	100.455262	2.968155	2.529790	-3.422845	36.944454	-4.313573	-3.657019	-1.435732	3.213759	11.688500	-13.372644	0.764416	-2.023065	-16.680370	0.	0.	0.	-12.286466	-5.551456	5.832868	4.783651	17.638617	-39.781876	11.379157	-1.373221	-2.288706	0.	0.	0.	0.032933	4.255233	-36.870075	-3.979484	-6.468447	51.680771	2.809580	1.271805	1.585165	26.065248	4.705784	0.007495	-45.606804	-18.516006	-36.476791	-1.526183	-6.460690	-10.104578	-8.560680	-1.353011	5.853372	-74.639297	-23.171537	-59.283325	-27.463577	-144.894714	-42.410583	-45.626259	-33.070580	-26.999365	-2.236873	-3.280780	20.265404	1.911223	1.712232	7.009394	
9.397465	100.455262	2.968155	2.529790	-3.422845	36.944454	-4.313573	-3.657019	-1.435732	3.213759	11.688500	-13.372644	0.764416	-2.023065	-16.680370	0.	0.	0.	-12.286466	-5.551456	5.832868	4.783651	17.638617	-39.781876	11.379157	-1.373221	-2.288706	0.	0.	0.	0.032933	4.255233	-36.870075	-3.979484	-6.468447	51.680771	2.809580	1.271805	1.585165	26.065248	4.705784	0.007495	-45.606804	-18.516006	-36.476791	-1.526183	-6.460690	-10.104578	-8.560680	-1.353011	5.853372	-74.639297	-23.171537	-59.283325	-27.463577	-144.894714	-42.410583	-45.626259	-33.070580	-26.999365	-2.236873	-3.280780	20.265404	1.911223	1.712232	7.009394	
